<mxfile host="app.diagrams.net" agent="Mozilla/5.0 (Macintosh; Intel Mac OS X 10_15_7) AppleWebKit/537.36 (KHTML, like Gecko) Chrome/128.0.0.0 Safari/537.36" version="24.7.17">
  <diagram name="Page-1" id="yQ9fxOO5IPVubWVHuG_N">
    <mxGraphModel dx="945" dy="533" grid="1" gridSize="10" guides="1" tooltips="1" connect="1" arrows="1" fold="1" page="1" pageScale="1" pageWidth="827" pageHeight="1169" math="0" shadow="0">
      <root>
        <mxCell id="0" />
        <mxCell id="1" parent="0" />
        <mxCell id="DrifgTEAB7CmJWWqjpeK-1" value="Target Contract" style="shape=umlLifeline;perimeter=lifelinePerimeter;whiteSpace=wrap;html=1;container=1;dropTarget=0;collapsible=0;recursiveResize=0;outlineConnect=0;portConstraint=eastwest;newEdgeStyle={&quot;curved&quot;:0,&quot;rounded&quot;:0};rounded=1;" vertex="1" parent="1">
          <mxGeometry x="690" y="75" width="100" height="685" as="geometry" />
        </mxCell>
        <mxCell id="DrifgTEAB7CmJWWqjpeK-36" value="" style="html=1;points=[[0,0,0,0,5],[0,1,0,0,-5],[1,0,0,0,5],[1,1,0,0,-5]];perimeter=orthogonalPerimeter;outlineConnect=0;targetShapes=umlLifeline;portConstraint=eastwest;newEdgeStyle={&quot;curved&quot;:0,&quot;rounded&quot;:0};" vertex="1" parent="DrifgTEAB7CmJWWqjpeK-1">
          <mxGeometry x="45" y="321" width="10" height="40" as="geometry" />
        </mxCell>
        <mxCell id="DrifgTEAB7CmJWWqjpeK-47" value="" style="html=1;points=[[0,0,0,0,5],[0,1,0,0,-5],[1,0,0,0,5],[1,1,0,0,-5]];perimeter=orthogonalPerimeter;outlineConnect=0;targetShapes=umlLifeline;portConstraint=eastwest;newEdgeStyle={&quot;curved&quot;:0,&quot;rounded&quot;:0};" vertex="1" parent="DrifgTEAB7CmJWWqjpeK-1">
          <mxGeometry x="45" y="503" width="10" height="107" as="geometry" />
        </mxCell>
        <mxCell id="DrifgTEAB7CmJWWqjpeK-51" value="" style="html=1;points=[[0,0,0,0,5],[0,1,0,0,-5],[1,0,0,0,5],[1,1,0,0,-5]];perimeter=orthogonalPerimeter;outlineConnect=0;targetShapes=umlLifeline;portConstraint=eastwest;newEdgeStyle={&quot;curved&quot;:0,&quot;rounded&quot;:0};" vertex="1" parent="DrifgTEAB7CmJWWqjpeK-1">
          <mxGeometry x="50" y="546" width="10" height="40" as="geometry" />
        </mxCell>
        <mxCell id="DrifgTEAB7CmJWWqjpeK-52" value="6.1 执行&lt;span style=&quot;font-size: 12px; background-color: rgb(251, 251, 251);&quot;&gt;submitCollection合约逻辑&lt;/span&gt;" style="html=1;align=left;spacingLeft=2;endArrow=block;rounded=0;edgeStyle=orthogonalEdgeStyle;curved=1;rounded=0;" edge="1" parent="DrifgTEAB7CmJWWqjpeK-1">
          <mxGeometry relative="1" as="geometry">
            <mxPoint x="55" y="528" as="sourcePoint" />
            <Array as="points">
              <mxPoint x="85" y="558" />
            </Array>
            <mxPoint x="60" y="558" as="targetPoint" />
          </mxGeometry>
        </mxCell>
        <mxCell id="DrifgTEAB7CmJWWqjpeK-2" value="" style="shape=umlLifeline;perimeter=lifelinePerimeter;whiteSpace=wrap;html=1;container=1;dropTarget=0;collapsible=0;recursiveResize=0;outlineConnect=0;portConstraint=eastwest;newEdgeStyle={&quot;curved&quot;:0,&quot;rounded&quot;:0};participant=umlActor;" vertex="1" parent="1">
          <mxGeometry x="80" y="80" width="20" height="680" as="geometry" />
        </mxCell>
        <mxCell id="DrifgTEAB7CmJWWqjpeK-16" value="" style="html=1;points=[[0,0,0,0,5],[0,1,0,0,-5],[1,0,0,0,5],[1,1,0,0,-5]];perimeter=orthogonalPerimeter;outlineConnect=0;targetShapes=umlLifeline;portConstraint=eastwest;newEdgeStyle={&quot;curved&quot;:0,&quot;rounded&quot;:0};" vertex="1" parent="DrifgTEAB7CmJWWqjpeK-2">
          <mxGeometry x="5" y="70" width="10" height="590" as="geometry" />
        </mxCell>
        <mxCell id="DrifgTEAB7CmJWWqjpeK-17" value="&lt;span style=&quot;text-align: center;&quot;&gt;1. 根据&amp;nbsp;&lt;/span&gt;&lt;span style=&quot;font-size: 12px; background-color: rgb(251, 251, 251);&quot;&gt;submitCollection 的abi编码规则&lt;/span&gt;&lt;div&gt;&lt;span style=&quot;font-size: 12px; background-color: rgb(251, 251, 251);&quot;&gt;&amp;nbsp; &amp;nbsp;进行编码和签名&lt;/span&gt;&lt;div&gt;&lt;span style=&quot;font-size: 12px; background-color: rgb(251, 251, 251);&quot;&gt;&amp;nbsp;* 签名使用的私钥为用户的私钥&lt;/span&gt;&lt;/div&gt;&lt;/div&gt;" style="html=1;align=left;spacingLeft=2;endArrow=block;rounded=0;edgeStyle=orthogonalEdgeStyle;curved=1;rounded=0;" edge="1" target="DrifgTEAB7CmJWWqjpeK-16" parent="DrifgTEAB7CmJWWqjpeK-2" source="DrifgTEAB7CmJWWqjpeK-2">
          <mxGeometry relative="1" as="geometry">
            <mxPoint x="40" y="60" as="sourcePoint" />
            <Array as="points">
              <mxPoint x="45" y="70" />
              <mxPoint x="45" y="90" />
            </Array>
          </mxGeometry>
        </mxCell>
        <mxCell id="DrifgTEAB7CmJWWqjpeK-3" value="Relayer Service" style="shape=umlLifeline;perimeter=lifelinePerimeter;whiteSpace=wrap;html=1;container=1;dropTarget=0;collapsible=0;recursiveResize=0;outlineConnect=0;portConstraint=eastwest;newEdgeStyle={&quot;curved&quot;:0,&quot;rounded&quot;:0};rounded=1;" vertex="1" parent="1">
          <mxGeometry x="290" y="80" width="100" height="680" as="geometry" />
        </mxCell>
        <mxCell id="DrifgTEAB7CmJWWqjpeK-7" value="" style="html=1;points=[[0,0,0,0,5],[0,1,0,0,-5],[1,0,0,0,5],[1,1,0,0,-5]];perimeter=orthogonalPerimeter;outlineConnect=0;targetShapes=umlLifeline;portConstraint=eastwest;newEdgeStyle={&quot;curved&quot;:0,&quot;rounded&quot;:0};" vertex="1" parent="DrifgTEAB7CmJWWqjpeK-3">
          <mxGeometry x="45" y="120" width="10" height="150" as="geometry" />
        </mxCell>
        <mxCell id="DrifgTEAB7CmJWWqjpeK-20" value="" style="html=1;points=[[0,0,0,0,5],[0,1,0,0,-5],[1,0,0,0,5],[1,1,0,0,-5]];perimeter=orthogonalPerimeter;outlineConnect=0;targetShapes=umlLifeline;portConstraint=eastwest;newEdgeStyle={&quot;curved&quot;:0,&quot;rounded&quot;:0};" vertex="1" parent="DrifgTEAB7CmJWWqjpeK-3">
          <mxGeometry x="51" y="155" width="10" height="40" as="geometry" />
        </mxCell>
        <mxCell id="DrifgTEAB7CmJWWqjpeK-21" value="3.携带签名， 组装转发交易" style="html=1;align=left;spacingLeft=2;endArrow=block;rounded=0;edgeStyle=orthogonalEdgeStyle;curved=1;rounded=0;strokeColor=default;" edge="1" parent="DrifgTEAB7CmJWWqjpeK-3">
          <mxGeometry relative="1" as="geometry">
            <mxPoint x="55" y="132" as="sourcePoint" />
            <Array as="points">
              <mxPoint x="86" y="132" />
              <mxPoint x="86" y="172" />
            </Array>
            <mxPoint x="61" y="172" as="targetPoint" />
          </mxGeometry>
        </mxCell>
        <mxCell id="DrifgTEAB7CmJWWqjpeK-4" value="Forward Contract" style="shape=umlLifeline;perimeter=lifelinePerimeter;whiteSpace=wrap;html=1;container=1;dropTarget=0;collapsible=0;recursiveResize=0;outlineConnect=0;portConstraint=eastwest;newEdgeStyle={&quot;curved&quot;:0,&quot;rounded&quot;:0};rounded=1;" vertex="1" parent="1">
          <mxGeometry x="470" y="80" width="100" height="680" as="geometry" />
        </mxCell>
        <mxCell id="DrifgTEAB7CmJWWqjpeK-23" value="" style="html=1;points=[[0,0,0,0,5],[0,1,0,0,-5],[1,0,0,0,5],[1,1,0,0,-5]];perimeter=orthogonalPerimeter;outlineConnect=0;targetShapes=umlLifeline;portConstraint=eastwest;newEdgeStyle={&quot;curved&quot;:0,&quot;rounded&quot;:0};" vertex="1" parent="DrifgTEAB7CmJWWqjpeK-4">
          <mxGeometry x="45" y="213" width="10" height="417" as="geometry" />
        </mxCell>
        <mxCell id="DrifgTEAB7CmJWWqjpeK-25" value="" style="html=1;points=[[0,0,0,0,5],[0,1,0,0,-5],[1,0,0,0,5],[1,1,0,0,-5]];perimeter=orthogonalPerimeter;outlineConnect=0;targetShapes=umlLifeline;portConstraint=eastwest;newEdgeStyle={&quot;curved&quot;:0,&quot;rounded&quot;:0};" vertex="1" parent="DrifgTEAB7CmJWWqjpeK-4">
          <mxGeometry x="50" y="257" width="10" height="40" as="geometry" />
        </mxCell>
        <mxCell id="DrifgTEAB7CmJWWqjpeK-26" value="5.1 校验签名" style="html=1;align=left;spacingLeft=2;endArrow=block;rounded=0;edgeStyle=orthogonalEdgeStyle;curved=1;rounded=0;" edge="1" parent="DrifgTEAB7CmJWWqjpeK-4">
          <mxGeometry relative="1" as="geometry">
            <mxPoint x="55" y="239" as="sourcePoint" />
            <Array as="points">
              <mxPoint x="100" y="239" />
              <mxPoint x="100" y="271" />
            </Array>
            <mxPoint x="60" y="271" as="targetPoint" />
          </mxGeometry>
        </mxCell>
        <mxCell id="DrifgTEAB7CmJWWqjpeK-40" value="" style="html=1;points=[[0,0,0,0,5],[0,1,0,0,-5],[1,0,0,0,5],[1,1,0,0,-5]];perimeter=orthogonalPerimeter;outlineConnect=0;targetShapes=umlLifeline;portConstraint=eastwest;newEdgeStyle={&quot;curved&quot;:0,&quot;rounded&quot;:0};" vertex="1" parent="DrifgTEAB7CmJWWqjpeK-4">
          <mxGeometry x="50" y="389" width="10" height="40" as="geometry" />
        </mxCell>
        <mxCell id="DrifgTEAB7CmJWWqjpeK-41" value="5.3 检查签名有效时间" style="html=1;align=left;spacingLeft=2;endArrow=block;rounded=0;edgeStyle=orthogonalEdgeStyle;curved=1;rounded=0;" edge="1" parent="DrifgTEAB7CmJWWqjpeK-4">
          <mxGeometry relative="1" as="geometry">
            <mxPoint x="55" y="373" as="sourcePoint" />
            <Array as="points">
              <mxPoint x="85" y="403" />
            </Array>
            <mxPoint x="60" y="403" as="targetPoint" />
          </mxGeometry>
        </mxCell>
        <mxCell id="DrifgTEAB7CmJWWqjpeK-45" value="" style="html=1;points=[[0,0,0,0,5],[0,1,0,0,-5],[1,0,0,0,5],[1,1,0,0,-5]];perimeter=orthogonalPerimeter;outlineConnect=0;targetShapes=umlLifeline;portConstraint=eastwest;newEdgeStyle={&quot;curved&quot;:0,&quot;rounded&quot;:0};" vertex="1" parent="DrifgTEAB7CmJWWqjpeK-4">
          <mxGeometry x="50" y="440" width="10" height="40" as="geometry" />
        </mxCell>
        <mxCell id="DrifgTEAB7CmJWWqjpeK-46" value="5.4 在用户提交目标合约操作msg.data&lt;div&gt;的最后20个字节追加用户的address&lt;/div&gt;" style="html=1;align=left;spacingLeft=2;endArrow=block;rounded=0;edgeStyle=orthogonalEdgeStyle;curved=1;rounded=0;" edge="1" parent="DrifgTEAB7CmJWWqjpeK-4">
          <mxGeometry relative="1" as="geometry">
            <mxPoint x="60" y="420" as="sourcePoint" />
            <Array as="points">
              <mxPoint x="85" y="454" />
            </Array>
            <mxPoint x="60" y="454" as="targetPoint" />
          </mxGeometry>
        </mxCell>
        <mxCell id="DrifgTEAB7CmJWWqjpeK-11" value="**以用户调用target合约的 submitCollection 方法为例进行说明&lt;div&gt;** 其中&lt;span style=&quot;background-color: initial;&quot;&gt;submitCollection 负责记录用户收集推文的动作&lt;/span&gt;&lt;/div&gt;" style="text;html=1;align=left;verticalAlign=middle;resizable=0;points=[];autosize=1;strokeColor=none;fillColor=none;" vertex="1" parent="1">
          <mxGeometry x="80" y="20" width="350" height="40" as="geometry" />
        </mxCell>
        <mxCell id="DrifgTEAB7CmJWWqjpeK-18" style="edgeStyle=orthogonalEdgeStyle;rounded=0;orthogonalLoop=1;jettySize=auto;html=1;curved=0;" edge="1" parent="1" source="DrifgTEAB7CmJWWqjpeK-16" target="DrifgTEAB7CmJWWqjpeK-7">
          <mxGeometry relative="1" as="geometry">
            <mxPoint x="480" y="230" as="targetPoint" />
            <Array as="points">
              <mxPoint x="220" y="200" />
              <mxPoint x="220" y="200" />
            </Array>
          </mxGeometry>
        </mxCell>
        <mxCell id="DrifgTEAB7CmJWWqjpeK-19" value="2. 提交签名" style="edgeLabel;html=1;align=center;verticalAlign=middle;resizable=0;points=[];" vertex="1" connectable="0" parent="DrifgTEAB7CmJWWqjpeK-18">
          <mxGeometry x="-0.9407" y="3" relative="1" as="geometry">
            <mxPoint x="23" y="-7" as="offset" />
          </mxGeometry>
        </mxCell>
        <mxCell id="DrifgTEAB7CmJWWqjpeK-22" style="edgeStyle=orthogonalEdgeStyle;rounded=0;orthogonalLoop=1;jettySize=auto;html=1;curved=0;" edge="1" parent="1">
          <mxGeometry relative="1" as="geometry">
            <mxPoint x="515" y="302" as="targetPoint" />
            <mxPoint x="345" y="302" as="sourcePoint" />
            <Array as="points">
              <mxPoint x="390" y="302" />
              <mxPoint x="390" y="302" />
            </Array>
          </mxGeometry>
        </mxCell>
        <mxCell id="DrifgTEAB7CmJWWqjpeK-24" value="4. 提交交易" style="edgeLabel;html=1;align=center;verticalAlign=middle;resizable=0;points=[];" vertex="1" connectable="0" parent="DrifgTEAB7CmJWWqjpeK-22">
          <mxGeometry x="-0.8449" y="4" relative="1" as="geometry">
            <mxPoint x="16" y="-9" as="offset" />
          </mxGeometry>
        </mxCell>
        <mxCell id="DrifgTEAB7CmJWWqjpeK-37" value="&lt;span style=&quot;text-align: left;&quot;&gt;5.2 校验target合约是否信任forward合约&amp;nbsp;&lt;/span&gt;" style="html=1;verticalAlign=bottom;endArrow=block;curved=0;rounded=0;entryX=0;entryY=0;entryDx=0;entryDy=5;" edge="1" target="DrifgTEAB7CmJWWqjpeK-36" parent="1" source="DrifgTEAB7CmJWWqjpeK-23">
          <mxGeometry relative="1" as="geometry">
            <mxPoint x="600" y="440" as="sourcePoint" />
          </mxGeometry>
        </mxCell>
        <mxCell id="DrifgTEAB7CmJWWqjpeK-38" value="返回校验结果" style="html=1;verticalAlign=bottom;endArrow=open;dashed=1;endSize=8;curved=0;rounded=0;exitX=0;exitY=1;exitDx=0;exitDy=-5;" edge="1" source="DrifgTEAB7CmJWWqjpeK-36" parent="1" target="DrifgTEAB7CmJWWqjpeK-23">
          <mxGeometry relative="1" as="geometry">
            <mxPoint x="785" y="575" as="targetPoint" />
          </mxGeometry>
        </mxCell>
        <mxCell id="DrifgTEAB7CmJWWqjpeK-48" value="5.5 转发用户交易" style="html=1;verticalAlign=bottom;endArrow=block;curved=0;rounded=0;entryX=0;entryY=0;entryDx=0;entryDy=5;align=right;" edge="1" target="DrifgTEAB7CmJWWqjpeK-47" parent="1" source="DrifgTEAB7CmJWWqjpeK-23">
          <mxGeometry relative="1" as="geometry">
            <mxPoint x="785" y="685" as="sourcePoint" />
          </mxGeometry>
        </mxCell>
        <mxCell id="DrifgTEAB7CmJWWqjpeK-49" value="7.1 返回执行成功/失败&lt;div&gt;触发fowward 转发事件&lt;/div&gt;" style="html=1;verticalAlign=bottom;endArrow=open;dashed=1;endSize=8;curved=0;rounded=0;exitX=0;exitY=1;exitDx=0;exitDy=-5;" edge="1" source="DrifgTEAB7CmJWWqjpeK-47" parent="1" target="DrifgTEAB7CmJWWqjpeK-23">
          <mxGeometry relative="1" as="geometry">
            <mxPoint x="760" y="810" as="targetPoint" />
          </mxGeometry>
        </mxCell>
      </root>
    </mxGraphModel>
  </diagram>
</mxfile>
